<?xml version="1.0" encoding="UTF-8" standalone="no"?>
<svg
  xmlns:dc="http://purl.org/dc/elements/1.1/"
  xmlns:cc="http://creativecommons.org/ns#"
  xmlns:rdf="http://www.w3.org/1999/02/22-rdf-syntax-ns#"
  xmlns:svg="http://www.w3.org/2000/svg"
  xmlns="http://www.w3.org/2000/svg"
  width="100%"
  height="100%"
  viewBox="0 0 64 64"
  version="1.1"
  xml:space="preserve"
  style="
    fill-rule: evenodd;
    clip-rule: evenodd;
    stroke-linecap: round;
    stroke-linejoin: round;
    stroke-miterlimit: 2;
  "
  id="svg19"
>
  <metadata id="metadata25">
    <rdf:RDF>
      <cc:Work rdf:about="">
        <dc:format>image/svg+xml</dc:format>

        <dc:type rdf:resource="http://purl.org/dc/dcmitype/StillImage" />
      </cc:Work>
    </rdf:RDF>
  </metadata>

  <defs id="defs23" />

  <path
    d="M13,50l0,-1.849c0,-0.695 -0.265,-1.364 -0.741,-1.87c-1.008,-1.072 -2.826,-3.005 -4.038,-4.293c-0.784,-0.834 -1.221,-1.936 -1.221,-3.081c0,-3.716 0,-12.325 0,-16.909c0,-1.656 1.342,-2.998 2.998,-2.998c0.001,0 0.003,0 0.004,0c0.795,0 1.558,0.316 2.12,0.878c0.562,0.562 0.878,1.325 0.878,2.12c0,2.271 0,5.002 0,5.002"
    style="fill: none; stroke: #fff; stroke-width: 2px"
    id="path3"
  />

  <path
    d="M51,50l0,-1.849c0,-0.695 0.265,-1.364 0.741,-1.87c1.008,-1.072 2.826,-3.005 4.038,-4.293c0.784,-0.834 1.221,-1.936 1.221,-3.081c0,-3.716 0,-12.325 0,-16.909c0,-1.656 -1.342,-2.998 -2.998,-2.998c-0.001,0 -0.003,0 -0.004,0c-0.795,0 -1.558,0.316 -2.12,0.878c-0.562,0.562 -0.878,1.325 -0.878,2.12c0,2.271 0,5.002 0,5.002"
    style="fill: none; stroke: #fff; stroke-width: 2px"
    id="path5"
  />

  <path
    d="M29,56.379l0,-4.933c0,-0.383 -0.152,-0.751 -0.424,-1.022c-0.271,-0.272 -0.639,-0.424 -1.022,-0.424c-3.21,0 -10.898,0 -14.108,0c-0.383,0 -0.751,0.152 -1.022,0.424c-0.272,0.271 -0.424,0.639 -0.424,1.022c0,1.882 0,4.933 0,4.933"
    style="fill: none; stroke: #fff; stroke-width: 2px"
    id="path7"
  />

  <path
    d="M35,56.379l0,-4.933c0,-0.383 0.152,-0.751 0.424,-1.022c0.271,-0.272 0.639,-0.424 1.022,-0.424c3.21,0 10.898,0 14.108,0c0.383,0 0.751,0.152 1.022,0.424c0.272,0.271 0.424,0.639 0.424,1.022c0,1.882 0,4.933 0,4.933"
    style="fill: none; stroke: #fff; stroke-width: 2px"
    id="path9"
  />

  <path
    d="M28,50l0,-5.491c0,-2.439 -1,-4.771 -2.767,-6.453c-2.287,-2.177 -5.476,-5.212 -7.49,-7.13c-1.066,-1.014 -2.745,-0.993 -3.785,0.047c-0.001,0.001 -0.001,0.001 -0.002,0.002c-1.08,1.08 -1.08,2.832 0,3.912c1.908,1.909 4.527,4.527 4.527,4.527"
    style="fill: none; stroke: #fff; stroke-width: 2px"
    id="path11"
  />

  <path
    d="M36,50l0,-5.491c0,-2.439 1,-4.771 2.767,-6.453c2.287,-2.177 5.476,-5.212 7.49,-7.13c1.066,-1.014 2.745,-0.993 3.785,0.047c0.001,0.001 0.001,0.001 0.002,0.002c1.08,1.08 1.08,2.832 0,3.912c-1.908,1.909 -4.527,4.527 -4.527,4.527"
    style="fill: none; stroke: #fff; stroke-width: 2px"
    id="path13"
  />

  <path
    d="M40,11c0,-1.657 -1.343,-3 -3,-3c-2.859,0 -7.141,0 -10,0c-1.657,0 -3,1.343 -3,3c0,2.02 0,4.728 0,7.051c0,2.953 1.732,5.631 4.425,6.841c1.849,0.832 3.575,1.608 3.575,1.608c0,0 1.726,-0.776 3.575,-1.608c2.693,-1.21 4.425,-3.888 4.425,-6.841l0,-7.051Z"
    style="fill: none; stroke: #fff; stroke-width: 2px"
    id="path15"
  />

  <path
    d="M28.75,16.748l2.5,2l4,-3.5"
    style="fill: none; stroke: #fff; stroke-width: 2px"
    id="path17"
  />
</svg>
