<svg xmlns="http://www.w3.org/2000/svg" viewBox="0 0 32 32">
  <title>16-House-Trade</title>
  <g id="_16-House-Trade" data-name="16-House-Trade">
    <path
      fill="#FFF"
      d="M31.63,12.22l-15-12a1,1,0,0,0-1.25,0l-15,12A1,1,0,0,0,1,14H3V31a1,1,0,0,0,1,1H28a1,1,0,0,0,1-1V14h2a1,1,0,0,0,.63-1.78ZM28,12a1,1,0,0,0-1,1V30H5V13a1,1,0,0,0-1-1H3.85L16,2.28,28.15,12Z"
    />
    <path
      fill="#FFF"
      d="M10,15a1,1,0,0,0-1,1v3h2V17h8.59l-1.29,1.29,1.41,1.41,3-3a1,1,0,0,0,0-1.41l-3-3-1.41,1.41L19.59,15Z"
    />
    <path
      fill="#FFF"
      d="M21,23H12.41l1.29-1.29-1.41-1.41-3,3a1,1,0,0,0,0,1.41l3,3,1.41-1.41L12.41,25H22a1,1,0,0,0,1-1V21H21Z"
    />
  </g>
</svg>
