<svg xmlns="http://www.w3.org/2000/svg" viewBox="0 0 32 32"><g id="garage"><path d="M28,23a1,1,0,0,0,1-1V11.69a2.73,2.73,0,0,0-1.21-2.28L17.52,2.47a2.68,2.68,0,0,0-3,0L4.21,9.41A2.73,2.73,0,0,0,3,11.69V27.25A2.74,2.74,0,0,0,5.73,30H26.27A2.74,2.74,0,0,0,29,27.25V26a1,1,0,0,0-2,0v1.25a.74.74,0,0,1-.73.75H25V14.36A2.36,2.36,0,0,0,22.64,12H9.36A2.36,2.36,0,0,0,7,14.36V28H5.73A.74.74,0,0,1,5,27.25V11.69a.76.76,0,0,1,.33-.63L15.6,4.12a.73.73,0,0,1,.8,0l10.27,6.94a.76.76,0,0,1,.33.63V22A1,1,0,0,0,28,23ZM9,22H23v2H9Zm0-7.64A.36.36,0,0,1,9.36,14H22.64a.36.36,0,0,1,.36.36V16H12a1,1,0,0,0,0,2H23v2H9ZM9,26H23v2H9Z"/></g></svg>