<?xml version="1.0" encoding="UTF-8"?>
<!DOCTYPE svg PUBLIC "-//W3C//DTD SVG 1.1//EN" "http://www.w3.org/Graphics/SVG/1.1/DTD/svg11.dtd">
<!-- Creator: CorelDRAW -->
<svg
  xmlns="http://www.w3.org/2000/svg"
  xml:space="preserve"
  width="2048px"
  height="2048px"
  style="
    shape-rendering: geometricPrecision;
    text-rendering: geometricPrecision;
    image-rendering: optimizeQuality;
    fill-rule: evenodd;
    clip-rule: evenodd;
  "
  viewBox="0 0 2048 2048"
  xmlns:xlink="http://www.w3.org/1999/xlink"
>
  <defs>
    <style type="text/css">
      <![CDATA[
       .fil1 {fill:none}
       .fil0 {fill:#FFF;fill-rule:nonzero}
      ]]>
    </style>
  </defs>
  <g id="Layer_x0020_1">
    <metadata id="CorelCorpID_0Corel-Layer" />
    <path
      class="fil0"
      d="M548.669 255.999l950.665 0c17.6728,0 32.0008,14.328 32.0008,32.0008l0 316.888c0,17.6728 -14.328,32.0008 -32.0008,32.0008l-950.665 0c-17.6728,0 -32.0008,-14.328 -32.0008,-32.0008l0 -316.888c0,-17.6728 14.328,-32.0008 32.0008,-32.0008zm918.664 64.0016l-886.664 0 0 252.886 886.664 0 0 -252.886z"
    />
    <path
      class="fil0"
      d="M703.338 797.776l641.327 0 0 -160.888 -641.327 0 0 160.888zm673.328 64.0016l-705.329 0c-17.6728,0 -32.0008,-14.328 -32.0008,-32.0008l0 -224.889c0,-17.6728 14.328,-32.0008 32.0008,-32.0008l705.329 0c17.6728,0 32.0008,14.328 32.0008,32.0008l0 224.889c0,17.6728 -14.328,32.0008 -32.0008,32.0008z"
    />
    <path
      class="fil0"
      d="M758.226 797.776l531.551 0c17.6728,0 32.0008,14.328 32.0008,32.0008l0 291.332c0,17.6728 -14.328,32.0008 -32.0008,32.0008l-531.551 0c-17.6728,0 -32.0008,-14.328 -32.0008,-32.0008l0 -291.332c0,-17.6728 14.328,-32.0008 32.0008,-32.0008zm499.55 64.0016l-467.549 0 0 227.33 467.549 0 0 -227.33z"
    />
    <path
      class="fil0"
      d="M822.114 1216.89l403.774 0c8.73544,0 16.702,-3.59764 22.4965,-9.39213 5.79331,-5.79331 9.39095,-13.7599 9.39095,-22.4965 0,-8.73662 -3.59764,-16.7032 -9.39095,-22.4965 -5.79449,-5.79449 -13.761,-9.39213 -22.4965,-9.39213l-403.774 0c-8.73544,0 -16.702,3.59764 -22.4965,9.39213 -5.79331,5.79331 -9.39095,13.7599 -9.39095,22.4965 0,8.73662 3.59764,16.7032 9.39095,22.4965 5.79449,5.79449 13.761,9.39213 22.4965,9.39213zm403.774 64.0016l-403.774 0c-26.4036,0 -50.3835,-10.7787 -67.7469,-28.1433 -17.3634,-17.3634 -28.1421,-41.3445 -28.1421,-67.7469 0,-26.4024 10.7787,-50.3835 28.1421,-67.7469 17.3634,-17.3646 41.3433,-28.1433 67.7469,-28.1433l403.774 0c26.4036,0 50.3835,10.7787 67.7469,28.1433 17.3634,17.3634 28.1421,41.3445 28.1421,67.7469 0,26.4024 -10.7787,50.3835 -28.1421,67.7469 -17.3634,17.3646 -41.3433,28.1433 -67.7469,28.1433z"
    />
    <path
      class="fil0"
      d="M822.114 1216.89l403.774 0c26.4024,0 50.3835,10.7787 67.7469,28.1421 17.3634,17.3634 28.1421,41.3445 28.1421,67.7469l0 0.0011811c0,26.4024 -10.7787,50.3835 -28.1421,67.7469 -17.3634,17.3634 -41.3445,28.1421 -67.7469,28.1421l-403.774 0c-26.4024,0 -50.3835,-10.7787 -67.7469,-28.1421 -17.3634,-17.3634 -28.1421,-41.3445 -28.1421,-67.7469l0 -0.0011811c0,-26.4024 10.7787,-50.3835 28.1421,-67.7469 17.3634,-17.3634 41.3445,-28.1421 67.7469,-28.1421zm403.774 64.0016l-403.774 0c-8.73662,0 -16.7032,3.59764 -22.4965,9.39095 -5.79331,5.79331 -9.39095,13.7599 -9.39095,22.4965l0 0.0011811c0,8.73662 3.59764,16.7032 9.39095,22.4965 5.79331,5.79331 13.7599,9.39095 22.4965,9.39095l403.774 0c8.73662,0 16.7032,-3.59764 22.4965,-9.39095 5.79331,-5.79331 9.39095,-13.7599 9.39095,-22.4965l0 -0.0011811c0,-8.73662 -3.59764,-16.7032 -9.39095,-22.4965 -5.79331,-5.79331 -13.7599,-9.39095 -22.4965,-9.39095z"
    />
    <path
      class="fil0"
      d="M822.114 1472.44l403.774 0c8.73544,0 16.702,-3.59764 22.4965,-9.39213 5.79331,-5.79331 9.39095,-13.7599 9.39095,-22.4965 0,-8.73662 -3.59764,-16.7032 -9.39095,-22.4965 -5.79449,-5.79449 -13.761,-9.39213 -22.4965,-9.39213l-403.774 0c-8.73544,0 -16.702,3.59764 -22.4965,9.39213 -5.79331,5.79331 -9.39095,13.7599 -9.39095,22.4965 0,8.73662 3.59764,16.7032 9.39095,22.4965 5.79449,5.79449 13.761,9.39213 22.4965,9.39213zm403.774 64.0016l-403.774 0c-26.4036,0 -50.3835,-10.7787 -67.7469,-28.1433 -17.3634,-17.3634 -28.1421,-41.3445 -28.1421,-67.7469 0,-26.4024 10.7787,-50.3835 28.1421,-67.7469 17.3634,-17.3646 41.3433,-28.1433 67.7469,-28.1433l403.774 0c26.4036,0 50.3835,10.7787 67.7469,28.1433 17.3634,17.3634 28.1421,41.3445 28.1421,67.7469 0,26.4024 -10.7787,50.3835 -28.1421,67.7469 -17.3634,17.3646 -41.3433,28.1433 -67.7469,28.1433z"
    />
    <path
      class="fil0"
      d="M822.114 1472.44l403.774 0c26.4024,0 50.3835,10.7787 67.7469,28.1421 17.3634,17.3634 28.1421,41.3445 28.1421,67.7469 0,26.4024 -10.7787,50.3835 -28.1421,67.7469 -17.3634,17.3646 -41.3433,28.1433 -67.7469,28.1433l-403.774 0c-26.4036,0 -50.3835,-10.7787 -67.7469,-28.1433 -17.3634,-17.3634 -28.1421,-41.3445 -28.1421,-67.7469 0,-26.4024 10.7787,-50.3835 28.1421,-67.7469 17.3634,-17.3634 41.3445,-28.1421 67.7469,-28.1421zm403.774 64.0016l-403.774 0c-8.73662,0 -16.7032,3.59764 -22.4965,9.39095 -5.79331,5.79331 -9.39095,13.7599 -9.39095,22.4965 0,8.73662 3.59764,16.7032 9.39095,22.4965 5.79449,5.79449 13.761,9.39213 22.4965,9.39213l403.774 0c8.73544,0 16.702,-3.59764 22.4965,-9.39213 5.79331,-5.79331 9.39095,-13.7599 9.39095,-22.4965 0,-8.73662 -3.59764,-16.7032 -9.39095,-22.4965 -5.79331,-5.79331 -13.7599,-9.39095 -22.4965,-9.39095z"
    />
    <path
      class="fil0"
      d="M822.114 1728l403.774 0c8.73662,0 16.7032,-3.59764 22.4965,-9.39095 5.79331,-5.79331 9.39095,-13.7599 9.39095,-22.4965 0,-8.73662 -3.59764,-16.7032 -9.39095,-22.4965 -5.79449,-5.79449 -13.761,-9.39213 -22.4965,-9.39213l-403.774 0c-8.73544,0 -16.702,3.59764 -22.4965,9.39213 -5.79331,5.79331 -9.39095,13.7599 -9.39095,22.4965 0,8.73662 3.59764,16.7032 9.39095,22.4965 5.79331,5.79331 13.7599,9.39095 22.4965,9.39095zm403.774 64.0016l-403.774 0c-26.4024,0 -50.3835,-10.7787 -67.7469,-28.1421 -17.3634,-17.3634 -28.1421,-41.3445 -28.1421,-67.7469 0,-26.4024 10.7787,-50.3835 28.1421,-67.7469 17.3634,-17.3646 41.3433,-28.1433 67.7469,-28.1433l403.774 0c26.4036,0 50.3835,10.7787 67.7469,28.1433 17.3634,17.3634 28.1421,41.3445 28.1421,67.7469 0,26.4024 -10.7787,50.3835 -28.1421,67.7469 -17.3634,17.3634 -41.3445,28.1421 -67.7469,28.1421z"
    />
    <path
      class="fil0"
      d="M392.352 256.002c-17.6728,0 -32.0008,14.328 -32.0008,32.0008 0,17.6728 14.328,32.0008 32.0008,32.0008l1263.3 0c17.6728,0 32.0008,-14.328 32.0008,-32.0008 0,-17.6728 -14.328,-32.0008 -32.0008,-32.0008l-1263.3 0z"
    />
  </g>
  <rect class="fil1" width="2048" height="2048" />
</svg>
