<svg xmlns="http://www.w3.org/2000/svg" viewBox="0 0 64 64">
  <defs>
    <style>
      .cls-1 {
        fill: #fff;
      }
    </style>
  </defs>
  <title>11-24 Hours Support</title>
  <g id="_11-24_Hours_Support" data-name="11-24 Hours Support">
    <path
      class="cls-1"
      d="M32,0A32,32,0,1,0,64,32,32,32,0,0,0,32,0Zm0,62A30,30,0,1,1,62,32,30,30,0,0,1,32,62Z"
    />
    <path
      class="cls-1"
      d="M56,31H54a3,3,0,0,0-3-3V26H50V17a7,7,0,0,0-7-7H21a7,7,0,0,0-7,7v9H13v2a3,3,0,0,0-3,3H8a1,1,0,0,0-1,1v8a1,1,0,0,0,1,1h2a3,3,0,0,0,3,3h4a1,1,0,0,0,1-1V29a1,1,0,0,0-1-1V26H16V17a5,5,0,0,1,5-5H43a5,5,0,0,1,5,5v9H47v2a1,1,0,0,0-1,1V43a1,1,0,0,0,1,1h2a6.36,6.36,0,0,1-1.63,3.5C45.4,49.64,41.82,50.83,37,51V50a1,1,0,0,0-1-1H26a1,1,0,0,0-1,1v4a1,1,0,0,0,1,1H36a1,1,0,0,0,1-1V53c5.51-.15,9.51-1.54,11.86-4.17A8.33,8.33,0,0,0,51,44h0a3,3,0,0,0,3-3h2a1,1,0,0,0,1-1V32A1,1,0,0,0,56,31ZM10,39H9V33h1Zm6,3H13a1,1,0,0,1-1-1V31a1,1,0,0,1,1-1h3ZM35,53H27V51h8ZM52,32v9a1,1,0,0,1-1,1H48V30h3a1,1,0,0,1,1,1Zm3,7H54V33h1Z"
    />
    <path
      class="cls-1"
      d="M31,42V40H25V37h4a2,2,0,0,0,2-2V30a2,2,0,0,0-2-2H25a2,2,0,0,0-2,2v3h2V30h4v5H25a2,2,0,0,0-2,2v3a2,2,0,0,0,2,2Z"
    />
    <path class="cls-1" d="M33,28v8a1,1,0,0,0,1,1h3v5h2V37h2V35H39V28H37v7H35V28Z" />
    <rect class="cls-1" x="31" y="19" width="2" height="2" />
    <rect class="cls-1" x="36" y="19" width="2" height="2" />
    <rect class="cls-1" x="26" y="19" width="2" height="2" />
  </g>
</svg>
