<?xml version="1.0" encoding="UTF-8" standalone="no"?>
<svg
  xmlns:dc="http://purl.org/dc/elements/1.1/"
  xmlns:cc="http://creativecommons.org/ns#"
  xmlns:rdf="http://www.w3.org/1999/02/22-rdf-syntax-ns#"
  xmlns:svg="http://www.w3.org/2000/svg"
  xmlns="http://www.w3.org/2000/svg"
  width="100%"
  height="100%"
  viewBox="0 0 64 64"
  version="1.1"
  xml:space="preserve"
  style="
    fill-rule: evenodd;
    clip-rule: evenodd;
    stroke-linecap: round;
    stroke-linejoin: round;
    stroke-miterlimit: 2;
  "
  id="svg29"
>
  <metadata id="metadata35">
    <rdf:RDF>
      <cc:Work rdf:about="">
        <dc:format>image/svg+xml</dc:format>

        <dc:type rdf:resource="http://purl.org/dc/dcmitype/StillImage" />
      </cc:Work>
    </rdf:RDF>
  </metadata>

  <defs id="defs33" />

  <path
    d="M39.312,31.979l-4.333,0"
    style="fill: none; stroke: #fff; stroke-width: 1.5px"
    id="path3"
  />

  <path
    d="M31.5,31.979l-6.812,0c0,0 -0.127,-2.256 2.166,-4.333"
    style="fill: none; stroke: #fff; stroke-width: 1.5px"
    id="path5"
  />

  <circle
    cx="25.5"
    cy="39.021"
    r="2.979"
    style="fill: none; stroke: #fff; stroke-width: 1.5px"
    id="circle7"
  />

  <path
    d="M35.521,39.021c0,-1.644 1.335,-2.979 2.979,-2.979c1.644,0 2.979,1.335 2.979,2.979c0,1.644 -1.335,2.979 -2.979,2.979c-0.487,0 -0.948,-0.117 -1.354,-0.325"
    style="fill: none; stroke: #fff; stroke-width: 1.5px"
    id="path9"
  />

  <path
    d="M22.521,39.021l-1.781,0c-0.961,0 -1.74,-0.779 -1.74,-1.74c0,-0.286 0,-0.576 0,-0.845c0,-0.667 0.54,-1.207 1.207,-1.207c0,0 0,0 0.001,0c0.247,0 0.464,-0.164 0.532,-0.401c0.227,-0.795 0.752,-2.632 1.214,-4.25c0.496,-1.735 2.082,-2.932 3.888,-2.932l9.311,0c1.028,0 1.941,0.658 2.267,1.634c0.047,0.143 0.097,0.291 0.147,0.441c0.557,1.672 2.122,2.8 3.885,2.8l0.355,0c0.703,0 1.378,0.279 1.875,0.776c0.497,0.497 0.776,1.172 0.776,1.875l0,0.057c0.299,0 0.542,0.243 0.542,0.542c0,0.398 0,0.962 0,1.51c0,0.961 -0.779,1.74 -1.74,1.74l-1.781,0"
    style="fill: none; stroke: #fff; stroke-width: 1.5px"
    id="path11"
  />

  <path
    d="M35.521,39.021l-3.521,0"
    style="fill: none; stroke: #fff; stroke-width: 1.5px"
    id="path13"
  />

  <path
    d="M48.918,41.157c0.261,-0.352 0.674,-0.56 1.112,-0.56c0.438,0 0.851,0.208 1.112,0.56c1.727,2.189 4.858,6.487 4.858,8.873c0,3.295 -2.675,5.97 -5.97,5.97c-3.295,0 -5.97,-2.675 -5.97,-5.97c0,-2.386 3.131,-6.684 4.858,-8.873Z"
    style="fill: none; stroke: #fff; stroke-width: 1.5px"
    id="path15"
  />

  <path
    d="M32,9c12.694,0 23,10.306 23,23l-4,-4"
    style="fill: none; stroke: #fff; stroke-width: 1.5px"
    id="path17"
  />

  <path
    d="M32,55c-12.694,0 -23,-10.306 -23,-23l4,4"
    style="fill: none; stroke: #fff; stroke-width: 1.5px"
    id="path19"
  />

  <path
    d="M49,53c0,0 -1.217,-0.37 -2,-2"
    style="fill: none; stroke: #fff; stroke-width: 1.5px"
    id="path21"
  />

  <path
    d="M9,12.424c0,-0.537 0.213,-1.052 0.593,-1.431c0.379,-0.38 0.894,-0.593 1.431,-0.593c0,0 0.001,0 0.001,0c0.207,0 0.375,-0.168 0.375,-0.375l0,-0.655c0,-0.363 0.144,-0.712 0.401,-0.969c0.257,-0.257 0.606,-0.401 0.969,-0.401c1.28,0 3.18,0 4.46,0c0.363,0 0.712,0.144 0.969,0.401c0.257,0.257 0.401,0.606 0.401,0.969c0,0.241 0,0.473 0,0.655c0,0.207 0.168,0.375 0.375,0.375l0.001,0c0.537,0 1.052,0.213 1.431,0.593c0.38,0.379 0.593,0.894 0.593,1.431c0,2.784 0,7.812 0,11.018c0,0.785 -0.312,1.537 -0.866,2.092c-0.555,0.554 -1.307,0.866 -2.092,0.866c-1.853,0 -4.231,0 -6.084,0c-0.785,0 -1.537,-0.312 -2.092,-0.866c-0.554,-0.555 -0.866,-1.307 -0.866,-2.092c0,-3.206 0,-8.234 0,-11.018Z"
    style="fill: none; stroke: #fff; stroke-width: 1.5px"
    id="path23"
  />

  <path
    d="M16.432,17.938c0.198,0 0.379,0.112 0.467,0.289c0.089,0.177 0.07,0.389 -0.049,0.547c-0.672,0.896 -1.75,2.334 -2.556,3.408c-0.128,0.17 -0.355,0.234 -0.553,0.154c-0.197,-0.08 -0.317,-0.283 -0.29,-0.495c0.137,-1.099 0.306,-2.45 0.405,-3.24c0.021,-0.168 -0.031,-0.336 -0.143,-0.463c-0.112,-0.127 -0.273,-0.2 -0.442,-0.2c-0.001,0 -0.001,0 -0.001,0c-0.184,0 -0.357,-0.082 -0.474,-0.224c-0.116,-0.141 -0.162,-0.328 -0.127,-0.508c0.126,-0.626 0.305,-1.52 0.427,-2.13c0.078,-0.393 0.423,-0.676 0.824,-0.676c0.519,0 1.238,0 1.824,0c0.252,0 0.49,0.113 0.65,0.308c0.16,0.195 0.223,0.451 0.174,0.698"
    style="fill: none; stroke: #fff; stroke-width: 1.5px"
    id="path25"
  />

  <path d="M19.4,10.4l-2.8,0" style="fill: none; stroke: #fff; stroke-width: 1.5px" id="path27" />
</svg>
